#!OML:ASF E:\emotionWalksFemale\Project 1\Capture day 1\Session 1\Female1.ASF
:FULLY-SPECIFIED
:DEGREES
434
root 7.63761 15.0538 39.9469 179.023 -4.02722 -179.792
lowerback 9.76513 1.5204 -1.87046
upperback -3.4858 1.66523 -0.970442
thorax -9.23479 0.867154 -0.272236
lowerneck -3.76016 -4.72115 -9.25095
upperneck 10.0131 -6.96199 9.4096
head 4.24473 -3.46459 4.03904
rclavicle 2.36057e-015 -1.19271e-015
rhumerus -41.7079 2.2916 -86.2803
rradius 32.8822
rwrist 15.7036
rhand -6.88541 -52.7624
rfingers 7.12502
rthumb -161.019 98.1437
lclavicle 2.36057e-015 -1.19271e-015
lhumerus -42.912 -6.07348 89.4014
lradius 35.513
lwrist -15.7847
lhand -2.02216 -36.3862
lfingers 7.12502
lthumb 23.6521 -7.82121
rfemur -27.2261 10.3477 20.1032
rtibia 32.7609
rfoot -21.2714 -23.7163
rtoes 5.42674
lfemur 4.02223 -13.772 -31.0729
ltibia 22.5761
lfoot -23.7821 9.67452
ltoes -17.5569
435
root 7.64669 15.0596 39.9123 179.156 -4.34388 -179.792
lowerback 9.62951 1.43442 -1.89755
upperback -3.50303 1.54687 -0.985327
thorax -9.17291 0.810385 -0.24845
lowerneck -4.18346 -4.78554 -9.12678
upperneck 10.3249 -7.03962 9.31899
head 4.41075 -3.49089 3.97399
rclavicle 1.02871e-014 3.97569e-015
rhumerus -41.8215 2.14117 -86.1997
rradius 33.2284
rwrist 15.8452
rhand -2.42543 -55.8341
rfingers 7.12502
rthumb -156.735 95.5514
lclavicle 1.02871e-014 3.97569e-015
lhumerus -42.9187 -6.2726 89.3843
lradius 35.5276
lwrist -15.5683
lhand -2.01741 -36.374
lfingers 7.12502
lthumb 23.6567 -7.80952
rfemur -27.2723 10.3569 20.0259
rtibia 32.4879
rfoot -21.1095 -24.1066
rtoes 6.41303
lfemur 3.93855 -13.9274 -30.9725
ltibia 22.6429
lfoot -23.7249 9.31807
ltoes -16.8137
436
root 7.65347 15.0538 39.8792 179 -4.054 -179.919
lowerback 9.72929 1.58548 -2.04222
upperback -3.41716 1.72594 -1.0245
thorax -9.14381 0.903912 -0.241405
lowerneck -4.52762 -4.85109 -9.09156
upperneck 10.6028 -7.11725 9.246
head 4.55713 -3.5215 3.93081
rclavicle 4.67144e-015 -7.95139e-015
rhumerus -41.9239 1.94355 -86.1486
rradius 33.7215
rwrist 16.0865
rhand 9.43788 -61.7891
rfingers 7.12502
rthumb -145.407 91.5608
lclavicle 4.67144e-015 -7.95139e-015
lhumerus -42.7052 -6.35288 89.3778
lradius 35.4261
lwrist -15.3196
lhand -1.89747 -36.498
lfingers 7.12502
lthumb 23.7717 -7.9485
rfemur -27.1137 10.4683 19.9613
rtibia 32.2741
rfoot -19.9547 -24.1099
rtoes 3.5377
lfemur 4.19961 -13.8316 -31.2081
ltibia 22.7518
lfoot -23.8254 9.08459
ltoes -14.7295
437
root 7.6625 15.0525 39.8453 178.968 -4.5137 -179.857
lowerback 9.70473 1.49854 -2.01893
upperback -3.40881 1.62051 -0.964147
thorax -9.11967 0.85428 -0.170873
lowerneck -4.63638 -4.88403 -9.14596
upperneck 10.6387 -7.14103 9.20465
head 4.58945 -3.53219 3.92238
rclavicle -3.3048e-015 2.78299e-015
rhumerus -42.0799 1.6242 -85.9045
rradius 34.0661
rwrist 16.405
rhand 11.9461 -65.8042
rfingers 7.12502
rthumb -143.03 -88.1235
lclavicle -3.3048e-015 2.78299e-015
lhumerus -42.7906 -6.41791 89.4828
lradius 35.7149
lwrist -14.6642
lhand -1.03203 -36.1279
lfingers 7.12502
lthumb 24.6015 -7.68882
rfemur -26.98 10.4223 19.985
rtibia 32.1578
rfoot -17.1526 -24.8064
rtoes -4.30802
lfemur 4.34925 -13.8542 -31.0364
ltibia 22.7631
lfoot -23.6895 8.59432
ltoes -15.0597
438
root 7.66772 15.0453 39.8219 179.257 -4.171 -179.947
lowerback 9.71578 1.63784 -1.95923
upperback -3.63967 1.79034 -1.09734
thorax -9.37502 0.926014 -0.381577
lowerneck -4.51401 -4.86686 -9.04765
upperneck 10.7089 -7.14175 9.13972
head 4.58416 -3.5383 3.88855
rclavicle 1.3418e-014 -1.43125e-014
rhumerus -42.3409 1.19139 -85.8024
rradius 34.25
rwrist 16.8335
rhand 6.94749 -67.9777
rfingers 7.12502
rthumb -147.774 -84.8619
lclavicle 1.3418e-014 -1.43125e-014
lhumerus -43.1797 -6.66682 89.4091
lradius 35.6969
lwrist -15.2267
lhand -2.6419 -36.1057
lfingers 7.12502
lthumb 23.0576 -7.46515
rfemur -27.4493 10.6298 19.8292
rtibia 32.0533
rfoot -19.5809 -24.304
rtoes 2.15663
lfemur 4.0198 -13.4462 -31.0271
ltibia 22.8518
lfoot -23.5779 8.70303
ltoes -16.3897
439
root 7.67389 15.0455 39.7882 179.193 -4.21443 -180.011
lowerback 10.0587 1.64807 -1.95297
upperback -3.79179 1.78382 -1.14799
thorax -9.74225 0.919469 -0.452601
lowerneck -4.43673 -4.85164 -9.07635
upperneck 10.8413 -7.14697 9.15332
head 4.61303 -3.54721 3.89845
rclavicle -2.85753e-014 -7.55382e-015
rhumerus -42.6414 1.09756 -85.7742
rradius 34.3982
rwrist 17.0481
rhand -0.336869 -68.2006
rfingers 7.12502
rthumb -154.732 -83.4527
lclavicle -2.85753e-014 -7.55382e-015
lhumerus -43.3629 -6.72974 89.3439
lradius 35.734
lwrist -14.7071
lhand -1.8924 -35.7771
lfingers 7.12502
lthumb 23.7766 -7.22821
rfemur -27.3562 10.6319 19.7732
rtibia 31.9406
rfoot -20.3619 -24.2013
rtoes 4.25064
lfemur 4.1457 -13.3919 -31.115
ltibia 23.0075
lfoot -23.5344 8.86737
ltoes -17.8482
440
root 7.6813 15.0524 39.7557 179.309 -4.30107 -179.842
lowerback 9.85865 1.61609 -1.7438
upperback -3.78826 1.77991 -1.11555
thorax -9.61386 0.906616 -0.528167
lowerneck -4.40365 -4.86522 -9.16624
upperneck 10.7148 -7.15826 9.25357
head 4.5768 -3.55062 3.94504
rclavicle 4.87022e-015 4.77083e-015
rhumerus -42.6308 1.28773 -85.8685
rradius 34.4695
rwrist 16.6824
rhand -5.14721 -65.0534
rfingers 7.12502
rthumb -159.348 -86.0253
lclavicle 4.87022e-015 4.77083e-015
lhumerus -43.2576 -6.76231 89.3687
lradius 35.4968
lwrist -15.2098
lhand -3.49174 -36.1916
lfingers 7.12502
lthumb 22.242 -7.45148
rfemur -27.4122 10.6093 19.9681
rtibia 31.8483
rfoot -20.4509 -24.154
rtoes 5.06595
lfemur 4.06181 -13.3071 -30.8462
ltibia 23.1472
lfoot -23.4913 8.66797
ltoes -17.8022
441
root 7.6889 15.051 39.7273 179.17 -4.32235 -179.868
lowerback 9.76221 1.60802 -1.76538
upperback -3.53498 1.77939 -1.11468
thorax -9.28007 0.909756 -0.50595
lowerneck -4.5161 -4.89716 -9.09364
upperneck 10.4292 -7.13849 9.12936
head 4.50101 -3.53247 3.89417
rclavicle -7.33018e-015 8.74653e-015
rhumerus -42.247 1.34146 -85.8666
rradius 34.5372
rwrist 16.604
rhand -5.10914 -58.1865
rfingers 7.12502
rthumb -159.311 92.8962
lclavicle -7.33018e-015 8.74653e-015
lhumerus -42.8457 -6.58148 89.2369
lradius 35.6758
lwrist -14.7164
lhand -3.02548 -36.1155
lfingers 7.12502
lthumb 22.6895 -7.42943
rfemur -27.2104 10.7852 19.9582
rtibia 31.7599
rfoot -19.8906 -24.2328
rtoes 5.56914
lfemur 4.2751 -13.1843 -30.8635
ltibia 23.2394
lfoot -23.424 8.35853
ltoes -16.7355
442
root 7.69575 15.0513 39.6954 179.131 -4.25024 -180.091
lowerback 10.2912 1.69013 -1.89393
upperback -3.786 1.83355 -1.23269
thorax -9.86875 0.936062 -0.59308
lowerneck -4.30081 -4.89618 -9.00664
upperneck 10.4826 -7.15565 8.97776
head 4.47398 -3.55345 3.83632
rclavicle 3.08116e-014 0
rhumerus -42.5629 1.0264 -85.7395
rradius 34.6444
rwrist 17.2982
rhand -3.98393 -56.2858
rfingers 7.12502
rthumb -158.231 94.9185
lclavicle 3.08116e-014 0
lhumerus -43.3522 -6.83402 89.2742
lradius 35.4321
lwrist -15.7441
lhand -5.70848 -37.0921
lfingers 7.12502
lthumb 20.1126 -8.11318
rfemur -27.1444 10.916 19.7174
rtibia 31.6586
rfoot -17.8359 -24.4868
rtoes 2.96414
lfemur 4.4098 -13.1216 -31.1268
ltibia 23.3813
lfoot -23.3127 8.47163
ltoes -17.7591
443
root 7.70823 15.057 39.6561 179.197 -4.46993 -180.131
lowerback 10.2353 1.64854 -1.98521
upperback -3.83085 1.76401 -1.22699
thorax -9.88811 0.90789 -0.521923
lowerneck -4.42574 -4.91754 -9.01606
upperneck 10.6854 -7.18668 8.92128
head 4.55797 -3.56989 3.81412
rclavicle 2.68856e-014 5.56597e-015
rhumerus -42.5601 1.02479 -85.6523
rradius 34.6162
rwrist 17.6087
rhand -3.65711 -56.4492
rfingers 7.12502
rthumb -157.917 94.7918
lclavicle 2.68856e-014 5.56597e-015
lhumerus -43.3264 -6.85649 89.1897
lradius 35.2533
lwrist -15.864
lhand -6.14994 -37.9911
lfingers 7.12502
lthumb 19.6882 -8.96811
rfemur -27.1055 10.9241 19.6778
rtibia 31.5796
rfoot -19.614 -24.822
rtoes 5.69288
lfemur 4.47886 -13.1954 -31.1106
ltibia 23.4845
lfoot -23.1233 8.62555
ltoes -20.1015
444
root 7.72062 15.0561 39.6192 179.076 -4.67524 -180.055
lowerback 10.3306 1.57746 -1.9852
upperback -3.79894 1.67584 -1.16177
thorax -9.91024 0.869043 -0.437904
lowerneck -4.57525 -4.93046 -9.08912
upperneck 10.8734 -7.20422 8.92709
head 4.64489 -3.5783 3.82218
rclavicle -4.77083e-015 -1.66979e-014
rhumerus -42.621 1.15945 -85.5985
rradius 34.6006
rwrist 17.5668
rhand -4.50695 -56.0984
rfingers 7.12502
rthumb -158.733 95.0484
lclavicle -4.77083e-015 -1.66979e-014
lhumerus -43.0583 -6.36137 88.875
lradius 35.1269
lwrist -15.3283
lhand -4.5147 -38.1511
lfingers 7.12502
lthumb 21.2596 -9.29705
rfemur -26.86 10.9442 19.8251
rtibia 31.5376
rfoot -17.4011 -25.4118
rtoes 1.49731
lfemur 4.69216 -13.0204 -30.9324
ltibia 23.5494
lfoot -23.0927 8.18942
ltoes -19.6578
